# xmcd CD database file
#
# Track frame offsets:
#	150
#	14408
#	31166
#	44767
#	61481
#	73248
#	86644
#	99213
#	112808
#	129413
#	143424
#	156827
#	170129
#	184269
#	197619
#	209953
#	223300
#	236688
#	248434
#	260950
#	271661
#
# Disc length: 3797 seconds
#
# Revision: 0
# Processed by: cddbd v1.5.2PL0 Copyright (c) Steve Scherf et al.
# Submitted via: ACXtractor (MTCDDB.DLL V2003.07.15)
#
DISCID=3c0ed315
DTITLE=Slim Whitman - Duets
DYEAR=1987
DGENRE=Country
TTITLE0=Back Home Again
TTITLE1=Road of Simarron
TTITLE2=Walbush Waltz
TTITLE3=If I Ever See You Again
TTITLE4=If You Love Me (let me Know)
TTITLE5=Down River Road
TTITLE6=Before the Next Teardrop Falls
TTITLE7=Cowboy Heaven
TTITLE8=I Wish I Was Eighteen Again
TTITLE9=Blue Eyes Crying in the Rain
TTITLE10=Just Out of Reach
TTITLE11=The Letter Edged in Black
TTITLE12=You are My Sunshine
TTITLE13=Harbour Lights
TTITLE14=Twillalee
TTITLE15=Little Drops of Silver
TTITLE16=When I'm gone You'll Soon Forget
TTITLE17=Let the Rest of the World go By
TTITLE18=My Mind has a Heart of It's Own
TTITLE19=The Old Lamplighter
TTITLE20=Yesterday's Roses
EXTD=ID3G:   2 YEAR: 1987
EXTT0=
EXTT1=
EXTT2=
EXTT3=
EXTT4=
EXTT5=
EXTT6=
EXTT7=
EXTT8=
EXTT9=
EXTT10=
EXTT11=
EXTT12=
EXTT13=
EXTT14=
EXTT15=
EXTT16=
EXTT17=
EXTT18=
EXTT19=
EXTT20=
PLAYORDER=
